<svg width="4441" height="2502" xmlns="http://www.w3.org/2000/svg" xmlns:xlink="http://www.w3.org/1999/xlink" xml:space="preserve" overflow="hidden"><defs><filter id="fx0" x="-10%" y="-10%" width="120%" height="120%" filterUnits="userSpaceOnUse" primitiveUnits="userSpaceOnUse"><feComponentTransfer color-interpolation-filters="sRGB"><feFuncR type="discrete" tableValues="0 0"/><feFuncG type="discrete" tableValues="0 0"/><feFuncB type="discrete" tableValues="0 0"/><feFuncA type="linear" slope="0.101961" intercept="0"/></feComponentTransfer><feGaussianBlur stdDeviation="7.63889 7.63889"/></filter><filter id="fx1" x="-10%" y="-10%" width="120%" height="120%" filterUnits="userSpaceOnUse" primitiveUnits="userSpaceOnUse"><feComponentTransfer color-interpolation-filters="sRGB"><feFuncR type="discrete" tableValues="0 0"/><feFuncG type="discrete" tableValues="0 0"/><feFuncB type="discrete" tableValues="0 0"/><feFuncA type="linear" slope="0.101961" intercept="0"/></feComponentTransfer><feGaussianBlur stdDeviation="7.64556 7.63889"/></filter><filter id="fx2" x="-10%" y="-10%" width="120%" height="120%" filterUnits="userSpaceOnUse" primitiveUnits="userSpaceOnUse"><feComponentTransfer color-interpolation-filters="sRGB"><feFuncR type="discrete" tableValues="0 0"/><feFuncG type="discrete" tableValues="0 0"/><feFuncB type="discrete" tableValues="0 0"/><feFuncA type="linear" slope="0.101961" intercept="0"/></feComponentTransfer><feGaussianBlur stdDeviation="7.67112 7.6675"/></filter><filter id="fx3" x="-10%" y="-10%" width="120%" height="120%" filterUnits="userSpaceOnUse" primitiveUnits="userSpaceOnUse"><feComponentTransfer color-interpolation-filters="sRGB"><feFuncR type="discrete" tableValues="0 0"/><feFuncG type="discrete" tableValues="0 0"/><feFuncB type="discrete" tableValues="0 0"/><feFuncA type="linear" slope="0.101961" intercept="0"/></feComponentTransfer><feGaussianBlur stdDeviation="7.64556 7.63889"/></filter><filter id="fx4" x="-10%" y="-10%" width="120%" height="120%" filterUnits="userSpaceOnUse" primitiveUnits="userSpaceOnUse"><feComponentTransfer color-interpolation-filters="sRGB"><feFuncR type="discrete" tableValues="0 0"/><feFuncG type="discrete" tableValues="0 0"/><feFuncB type="discrete" tableValues="0 0"/><feFuncA type="linear" slope="0.101961" intercept="0"/></feComponentTransfer><feGaussianBlur stdDeviation="7.64556 7.63889"/></filter><filter id="fx5" x="-10%" y="-10%" width="120%" height="120%" filterUnits="userSpaceOnUse" primitiveUnits="userSpaceOnUse"><feComponentTransfer color-interpolation-filters="sRGB"><feFuncR type="discrete" tableValues="0 0"/><feFuncG type="discrete" tableValues="0 0"/><feFuncB type="discrete" tableValues="0 0"/><feFuncA type="linear" slope="0.101961" intercept="0"/></feComponentTransfer><feGaussianBlur stdDeviation="7.64556 7.63889"/></filter><filter id="fx6" x="-10%" y="-10%" width="120%" height="120%" filterUnits="userSpaceOnUse" primitiveUnits="userSpaceOnUse"><feComponentTransfer color-interpolation-filters="sRGB"><feFuncR type="discrete" tableValues="0 0"/><feFuncG type="discrete" tableValues="0 0"/><feFuncB type="discrete" tableValues="0 0"/><feFuncA type="linear" slope="0.101961" intercept="0"/></feComponentTransfer><feGaussianBlur stdDeviation="7.64509 7.6472"/></filter><filter id="fx7" x="-10%" y="-10%" width="120%" height="120%" filterUnits="userSpaceOnUse" primitiveUnits="userSpaceOnUse"><feComponentTransfer color-interpolation-filters="sRGB"><feFuncR type="discrete" tableValues="0 0"/><feFuncG type="discrete" tableValues="0 0"/><feFuncB type="discrete" tableValues="0 0"/><feFuncA type="linear" slope="0.101961" intercept="0"/></feComponentTransfer><feGaussianBlur stdDeviation="7.64287 7.6472"/></filter><filter id="fx8" x="-10%" y="-10%" width="120%" height="120%" filterUnits="userSpaceOnUse" primitiveUnits="userSpaceOnUse"><feComponentTransfer color-interpolation-filters="sRGB"><feFuncR type="discrete" tableValues="0 0"/><feFuncG type="discrete" tableValues="0 0"/><feFuncB type="discrete" tableValues="0 0"/><feFuncA type="linear" slope="0.101961" intercept="0"/></feComponentTransfer><feGaussianBlur stdDeviation="7.63889 7.6472"/></filter><filter id="fx9" x="-10%" y="-10%" width="120%" height="120%" filterUnits="userSpaceOnUse" primitiveUnits="userSpaceOnUse"><feComponentTransfer color-interpolation-filters="sRGB"><feFuncR type="discrete" tableValues="0 0"/><feFuncG type="discrete" tableValues="0 0"/><feFuncB type="discrete" tableValues="0 0"/><feFuncA type="linear" slope="0.101961" intercept="0"/></feComponentTransfer><feGaussianBlur stdDeviation="7.64509 7.64733"/></filter><filter id="fx10" x="-10%" y="-10%" width="120%" height="120%" filterUnits="userSpaceOnUse" primitiveUnits="userSpaceOnUse"><feComponentTransfer color-interpolation-filters="sRGB"><feFuncR type="discrete" tableValues="0 0"/><feFuncG type="discrete" tableValues="0 0"/><feFuncB type="discrete" tableValues="0 0"/><feFuncA type="linear" slope="0.101961" intercept="0"/></feComponentTransfer><feGaussianBlur stdDeviation="7.64287 7.64733"/></filter><filter id="fx11" x="-10%" y="-10%" width="120%" height="120%" filterUnits="userSpaceOnUse" primitiveUnits="userSpaceOnUse"><feComponentTransfer color-interpolation-filters="sRGB"><feFuncR type="discrete" tableValues="0 0"/><feFuncG type="discrete" tableValues="0 0"/><feFuncB type="discrete" tableValues="0 0"/><feFuncA type="linear" slope="0.101961" intercept="0"/></feComponentTransfer><feGaussianBlur stdDeviation="7.63889 7.64733"/></filter><clipPath id="clip12"><rect x="-5" y="0" width="4441" height="2502"/></clipPath><clipPath id="clip13"><rect x="0" y="0" width="573" height="309"/></clipPath><clipPath id="clip14"><rect x="20.5865" y="24.5918" width="78.8312" height="78.794"/></clipPath><clipPath id="clip15"><rect x="0" y="0" width="119" height="134"/></clipPath><clipPath id="clip16"><rect x="0" y="0" width="573" height="309"/></clipPath><clipPath id="clip17"><rect x="0" y="0" width="573" height="309"/></clipPath><clipPath id="clip18"><rect x="0" y="0" width="573" height="309"/></clipPath><clipPath id="clip19"><rect x="0" y="0" width="616" height="460"/></clipPath><clipPath id="clip20"><rect x="0" y="0" width="961" height="460"/></clipPath><clipPath id="clip21"><rect x="0" y="0" width="616" height="453"/></clipPath><clipPath id="clip22"><rect x="0" y="0" width="643" height="453"/></clipPath></defs><g clip-path="url(#clip12)" transform="translate(5 0)"><path d="M0 96.724C-3.50112e-14 43.3048 43.3048-1.75056e-14 96.724 0L4303.28 0C4356.7-1.75056e-14 4400 43.3048 4400 96.724L4400 2378.28C4400 2431.7 4356.7 2475 4303.28 2475L96.724 2475C43.3048 2475 0 2431.7 0 2378.28Z" fill="#E0F7FF" fill-rule="evenodd"/><g filter="url(#fx0)" transform="matrix(2 0 0 2 -6 5)"><g><path d="M23.6023 34.936C23.6023 28.6766 28.6765 23.6023 34.9359 23.6023L2186.27 23.6023C2192.53 23.6023 2197.6 28.6766 2197.6 34.936L2197.6 80.2685C2197.6 86.5279 2192.53 91.6022 2186.27 91.6022L34.9359 91.6022C28.6765 91.6022 23.6023 86.5279 23.6023 80.2685Z" fill="#FFFFFF" fill-rule="evenodd"/></g></g><path d="M25.0001 58.6675C25.0001 46.1487 35.1486 36.0001 47.6673 36.0001L4350.33 36.0001C4362.85 36.0001 4373 46.1487 4373 58.6675L4373 149.332C4373 161.851 4362.85 172 4350.33 172L47.6673 172C35.1486 172 25.0001 161.851 25.0001 149.332Z" fill="#FFFFFF" fill-rule="evenodd"/><text fill="#A6DFFF" font-family="ADLaM Display,ADLaM Display_MSFontService,sans-serif" font-weight="700" font-size="64" transform="matrix(1 0 0 1 60.5 102)">Superstore Dashboard Report</text><text fill="#AEAEAE" font-family="Aptos Display,Aptos Display_MSFontService,sans-serif" font-weight="700" font-size="37" transform="matrix(1 0 0 1 120.282 147)">Select a metric, pick a year, hover for insights</text><g filter="url(#fx1)" transform="matrix(1.99825 0 0 2 30 177)"><g clip-path="url(#clip13)"><path d="M23.6228 42.6155C23.6228 32.1147 32.1427 23.6022 42.6526 23.6022L530.552 23.6022C541.062 23.6022 549.582 32.1147 549.582 42.6155L549.582 266.589C549.582 277.09 541.062 285.602 530.552 285.602L42.6526 285.602C32.1427 285.602 23.6228 277.09 23.6228 266.589Z" fill="#FFFFFF" fill-rule="evenodd"/></g></g><g clip-path="url(#clip14)" filter="url(#fx2)" transform="matrix(1.9916 0 0 1.99254 484 365)"><g clip-path="url(#clip15)" transform="matrix(1 0 0 1 0 -2.84217e-14)"><path d="M22.5737 0.688965C19.0073 0.688965 15.8462-0.0607911 13.0903-1.5603 10.3345-3.05981 8.17977-5.31584 6.62622-8.32837 5.07267-11.3409 4.2959-15.1167 4.2959-19.6558 4.2959-24.1948 5.05916-27.9841 6.58569-31.0237 8.11222-34.0632 10.2467-36.3463 12.989-37.8728 15.7314-39.3993 18.9263-40.1626 22.5737-40.1626 25.6268-40.1626 28.3759-39.6628 30.821-38.6631 33.2662-37.6634 35.2183-36.1571 36.6772-34.1443 38.1362-32.1314 38.9062-29.585 38.9873-26.5049L32.3003-26.5049C32.1382-29.0446 31.2196-31.0439 29.5444-32.5029 27.8693-33.9619 25.5863-34.6914 22.6953-34.6914 18.8587-34.6914 15.9948-33.3743 14.1035-30.74 12.2122-28.1057 11.2666-24.411 11.2666-19.6558 11.2666-16.4946 11.6854-13.8131 12.5229-11.6111 13.3605-9.4091 14.6304-7.72046 16.3325-6.54517 18.0347-5.36987 20.1556-4.78223 22.6953-4.78223 25.5863-4.78223 27.9368-5.53198 29.7471-7.03149 31.5573-8.531 32.5029-10.7262 32.584-13.6172L39.271-13.6172C39.1899-10.429 38.4132-7.77449 36.9407-5.65356 35.4682-3.53263 33.4823-1.94531 30.9832-0.891602 28.484 0.162109 25.6808 0.688965 22.5737 0.688965Z" fill="#FFFFFF" transform="matrix(0.50211 0 0 0.501873 48.6547 74)"/></g></g><path d="M60.9998 246.026C60.9998 225.025 78.0248 208 99.0262 208L1073.97 208C1094.98 208 1112 225.025 1112 246.026L1112 693.973C1112 714.975 1094.98 732 1073.97 732L99.0262 732C78.0248 732 60.9998 714.975 60.9998 693.973Z" fill="#FFFFFF" fill-rule="evenodd"/><text fill="#FFFFFF" font-family="Aptos,Aptos_MSFontService,sans-serif" font-weight="400" font-size="83" transform="matrix(1 0 0 1 564.696 496)">c</text><g filter="url(#fx3)" transform="matrix(1.99825 0 0 2 1101 177)"><g clip-path="url(#clip16)"><path d="M23.6228 42.6155C23.6228 32.1147 32.1428 23.6022 42.6526 23.6022L530.552 23.6022C541.062 23.6022 549.582 32.1147 549.582 42.6155L549.582 266.589C549.582 277.09 541.062 285.602 530.552 285.602L42.6526 285.602C32.1428 285.602 23.6228 277.09 23.6228 266.589Z" fill="#FFFFFF" fill-rule="evenodd"/></g></g><path d="M1132 246.026C1132 225.025 1149.03 208 1170.03 208L2144.97 208C2165.98 208 2183 225.025 2183 246.026L2183 693.973C2183 714.975 2165.98 732 2144.97 732L1170.03 732C1149.03 732 1132 714.975 1132 693.973Z" fill="#FFFFFF" fill-rule="evenodd"/><g filter="url(#fx4)" transform="matrix(1.99825 0 0 2 2186 177)"><g clip-path="url(#clip17)"><path d="M23.6227 42.6155C23.6227 32.1147 32.1427 23.6022 42.6525 23.6022L530.552 23.6022C541.062 23.6022 549.582 32.1147 549.582 42.6155L549.582 266.589C549.582 277.09 541.062 285.602 530.552 285.602L42.6525 285.602C32.1427 285.602 23.6227 277.09 23.6227 266.589Z" fill="#FFFFFF" fill-rule="evenodd"/></g></g><path d="M2217 246.026C2217 225.025 2234.02 208 2255.03 208L3229.97 208C3250.98 208 3268 225.025 3268 246.026L3268 693.973C3268 714.975 3250.98 732 3229.97 732L2255.03 732C2234.02 732 2217 714.975 2217 693.973Z" fill="#FFFFFF" fill-rule="evenodd"/><g filter="url(#fx5)" transform="matrix(1.99825 0 0 2 3257 177)"><g clip-path="url(#clip18)"><path d="M23.6229 42.6155C23.6229 32.1147 32.1428 23.6022 42.6527 23.6022L530.552 23.6022C541.062 23.6022 549.582 32.1147 549.582 42.6155L549.582 266.589C549.582 277.09 541.062 285.602 530.552 285.602L42.6527 285.602C32.1428 285.602 23.6229 277.09 23.6229 266.589Z" fill="#FFFFFF" fill-rule="evenodd"/></g></g><path d="M3288 246.026C3288 225.025 3305.02 208 3326.03 208L4300.97 208C4321.98 208 4339 225.025 4339 246.026L4339 693.973C4339 714.975 4321.98 732 4300.97 732L3326.03 732C3305.02 732 3288 714.975 3288 693.973Z" fill="#FFFFFF" fill-rule="evenodd"/><g filter="url(#fx6)" transform="matrix(1.99838 0 0 1.99783 30 737)"><g clip-path="url(#clip19)"><path d="M23.6214 52.2538C23.6214 36.4442 36.4341 23.6279 52.2393 23.6279L563.965 23.6279C579.771 23.6279 592.583 36.4442 592.583 52.2538L592.583 407.951C592.583 423.761 579.771 436.577 563.965 436.577L52.2393 436.577C36.4341 436.577 23.6214 423.761 23.6214 407.951Z" fill="#FFFFFF" fill-rule="evenodd"/></g></g><path d="M60.9998 825.189C60.9998 793.605 86.6044 768 118.189 768L1140.81 768C1172.4 768 1198 793.605 1198 825.189L1198 1535.81C1198 1567.4 1172.4 1593 1140.81 1593L118.189 1593C86.6044 1593 60.9998 1567.4 60.9998 1535.81Z" fill="#FFFFFF" fill-rule="evenodd"/><g filter="url(#fx7)" transform="matrix(1.99896 0 0 1.99783 1228 737)"><g clip-path="url(#clip20)"><path d="M23.6146 52.2539C23.6146 36.4442 36.4236 23.6279 52.2243 23.6279L908.98 23.6279C924.781 23.6279 937.59 36.4442 937.59 52.2539L937.59 407.951C937.59 423.76 924.781 436.577 908.98 436.577L52.2243 436.577C36.4236 436.577 23.6146 423.76 23.6146 407.951Z" fill="#FFFFFF" fill-rule="evenodd"/></g></g><path d="M1259 825.19C1259 793.605 1284.6 768 1316.19 768L3028.81 768C3060.4 768 3086 793.605 3086 825.19L3086 1535.81C3086 1567.4 3060.4 1593 3028.81 1593L1316.19 1593C1284.6 1593 1259 1567.4 1259 1535.81Z" fill="#FFFFFF" fill-rule="evenodd"/><g filter="url(#fx8)" transform="matrix(2 0 0 1.99783 3116 737)"><g><path d="M23.6023 52.2532C23.6023 36.4439 36.4043 23.6279 52.1965 23.6279L591.008 23.6279C606.8 23.6279 619.602 36.4439 619.602 52.2532L619.602 407.952C619.602 423.761 606.8 436.577 591.008 436.577L52.1965 436.577C36.4043 436.577 23.6023 423.761 23.6023 407.952Z" fill="#FFFFFF" fill-rule="evenodd"/></g></g><path d="M3147 825.188C3147 793.604 3172.6 768 3204.19 768L4281.81 768C4313.4 768 4339 793.604 4339 825.188L4339 1535.81C4339 1567.4 4313.4 1593 4281.81 1593L3204.19 1593C3172.6 1593 3147 1567.4 3147 1535.81Z" fill="#FFFFFF" fill-rule="evenodd"/><g filter="url(#fx9)" transform="matrix(1.99838 0 0 1.99779 30 1597)"><g clip-path="url(#clip21)"><path d="M23.6214 51.7686C23.6214 36.2272 36.2165 23.6284 51.7534 23.6284L564.451 23.6284C579.988 23.6284 592.583 36.2272 592.583 51.7686L592.583 401.436C592.583 416.978 579.988 429.576 564.451 429.576L51.7534 429.576C36.2165 429.576 23.6214 416.978 23.6214 401.436Z" fill="#FFFFFF" fill-rule="evenodd"/></g></g><path d="M60.9998 1684.22C60.9998 1653.17 86.1696 1628 117.218 1628L1141.78 1628C1172.83 1628 1198 1653.17 1198 1684.22L1198 2382.78C1198 2413.83 1172.83 2439 1141.78 2439L117.218 2439C86.1696 2439 60.9998 2413.83 60.9998 2382.78Z" fill="#FFFFFF" fill-rule="evenodd"/><g filter="url(#fx10)" transform="matrix(1.99896 0 0 1.99779 1228 1597)"><g><path d="M23.6147 51.7688C23.6147 36.2273 36.2062 23.6284 51.7386 23.6284L909.466 23.6284C924.999 23.6284 937.59 36.2273 937.59 51.7688L937.59 401.436C937.59 416.978 924.999 429.576 909.466 429.576L51.7386 429.576C36.2062 429.576 23.6147 416.978 23.6147 401.436Z" fill="#FFFFFF" fill-rule="evenodd"/></g></g><path d="M1259 1684.22C1259 1653.17 1284.17 1628 1315.22 1628L3029.78 1628C3060.83 1628 3086 1653.17 3086 1684.22L3086 2382.78C3086 2413.83 3060.83 2439 3029.78 2439L1315.22 2439C1284.17 2439 1259 2413.83 1259 2382.78Z" fill="#FFFFFF" fill-rule="evenodd"/><g filter="url(#fx11)" transform="matrix(2 0 0 1.99779 3116 1597)"><g clip-path="url(#clip22)"><path d="M23.6023 51.7687C23.6023 36.2272 36.1872 23.6284 51.7115 23.6284L591.493 23.6284C607.017 23.6284 619.602 36.2272 619.602 51.7687L619.602 401.436C619.602 416.978 607.017 429.576 591.493 429.576L51.7115 429.576C36.1872 429.576 23.6023 416.978 23.6023 401.436Z" fill="#FFFFFF" fill-rule="evenodd"/></g></g><path d="M3147 1684.22C3147 1653.17 3172.17 1628 3203.22 1628L4282.78 1628C4313.83 1628 4339 1653.17 4339 1684.22L4339 2382.78C4339 2413.83 4313.83 2439 4282.78 2439L3203.22 2439C3172.17 2439 3147 2413.83 3147 2382.78Z" fill="#FFFFFF" fill-rule="evenodd"/></g></svg>